<svg width="196" height="67" viewBox="0 0 196 67" fill="none" xmlns="http://www.w3.org/2000/svg">
<path d="M59.6311 45.7988L61.5058 45.3284V25.2673L59.6311 24.7971V24.3269H68.0666C71.2324 24.3269 73.5549 24.8389 75.0336 25.8629C76.5334 26.8659 77.283 28.1824 77.283 29.8125C77.283 30.9408 76.96 31.8498 76.3145 32.5395C75.669 33.2292 74.8463 33.7411 73.8463 34.0755C72.7842 34.4514 71.6386 34.6501 70.4097 34.671V34.8276C71.9302 34.8903 73.2528 35.1203 74.3777 35.5174C75.523 35.8935 76.4706 36.4786 77.2205 37.2727C77.9912 38.0668 78.3766 39.0802 78.3766 40.3132C78.3766 42.173 77.6163 43.636 76.0957 44.7016C74.5754 45.7463 72.1072 46.269 68.6913 46.269H59.6311V45.7988ZM68.0666 34.3575C68.7541 34.3575 69.3892 34.1695 69.9723 33.7933C70.5765 33.3963 71.0555 32.853 71.4096 32.1633C71.7845 31.4527 71.9719 30.6693 71.9719 29.8125C71.9719 28.8929 71.7845 28.0779 71.4096 27.3675C71.0555 26.6569 70.5765 26.1032 69.9723 25.7061C69.3892 25.3091 68.7541 25.1106 68.0666 25.1106H66.6608V34.3575H68.0666ZM68.6913 45.4853C69.9827 45.4853 71.0347 45.0256 71.847 44.1061C72.6593 43.1867 73.0652 41.9224 73.0652 40.3132C73.0652 38.7041 72.6593 37.4398 71.847 36.5203C71.0347 35.6009 69.9827 35.1412 68.6913 35.1412H66.6608V45.4853H68.6913Z" fill="black"/>
<path d="M78.9915 45.7988L80.8662 45.3284V25.2673L78.9915 24.7971V24.3269H83.0531C84.9275 24.3269 85.8648 25.2673 85.8648 27.148V45.3284L87.7395 45.7988V46.269H78.9915V45.7988Z" fill="black"/>
<path d="M96.3262 46.7391C93.7435 46.7391 91.7127 46.0076 90.234 44.5449C88.7758 43.0611 88.0471 41.0238 88.0471 38.4326C88.0471 35.8413 88.7758 33.8142 90.234 32.3515C91.7127 30.8677 93.7435 30.1257 96.3262 30.1257C98.9089 30.1257 100.929 30.8677 102.387 32.3515C103.866 33.8142 104.605 35.8413 104.605 38.4326C104.605 41.0238 103.866 43.0611 102.387 44.5449C100.929 46.0076 98.9089 46.7391 96.3262 46.7391ZM96.3262 46.1121C97.1593 46.1121 97.8569 45.527 98.4194 44.3567C99.0025 43.1867 99.2942 41.2118 99.2942 38.4326C99.2942 35.6531 99.0025 33.6785 98.4194 32.5081C97.8569 31.3378 97.1593 30.7528 96.3262 30.7528C95.493 30.7528 94.7848 31.3378 94.2017 32.5081C93.6391 33.6785 93.3581 35.6531 93.3581 38.4326C93.3581 41.2118 93.6391 43.1867 94.2017 44.3567C94.7848 45.527 95.493 46.1121 96.3262 46.1121Z" fill="black"/>
<path d="M112.895 46.7391C111.604 46.7391 110.448 46.4569 109.428 45.8928C108.928 45.621 108.522 45.3286 108.209 45.0151C107.876 45.4748 107.511 45.8301 107.116 46.0807C106.928 46.2063 106.72 46.3212 106.491 46.4256H105.71V41.0969H106.959C107.23 41.9746 107.626 42.7896 108.147 43.5417C109.251 45.1508 110.625 45.9554 112.271 45.9554C113.145 45.9554 113.801 45.7463 114.239 45.3284C114.697 44.8895 114.926 44.2627 114.926 43.4477C114.926 42.7583 114.614 42.1834 113.989 41.7237C113.385 41.2431 112.427 40.6581 111.115 39.9684C109.99 39.4042 109.073 38.9027 108.365 38.4639C107.678 38.0042 107.084 37.4398 106.584 36.7712C106.105 36.0815 105.866 35.2769 105.866 34.3575C105.866 33.1036 106.397 32.0902 107.459 31.3169C108.542 30.5228 110.198 30.1257 112.427 30.1257C113.531 30.1257 114.551 30.4184 115.488 31.0034C115.947 31.2752 116.342 31.5574 116.676 31.8498C116.946 31.4739 117.311 31.1186 117.769 30.7841C118.123 30.575 118.332 30.4602 118.394 30.4393H119.175V35.7679H117.925C117.613 34.8694 117.228 34.0651 116.769 33.3545C115.728 31.7245 114.489 30.9094 113.051 30.9094C112.489 30.9094 112.01 31.1186 111.614 31.5365C111.219 31.9545 111.021 32.4768 111.021 33.1036C111.021 33.8977 111.354 34.5666 112.021 35.1098C112.687 35.6322 113.697 36.2384 115.051 36.9278C116.155 37.492 117.03 37.9937 117.675 38.4326C118.342 38.8505 118.904 39.3729 119.363 39.9997C119.842 40.6268 120.081 41.358 120.081 42.1939C120.081 45.2239 117.686 46.7391 112.895 46.7391Z" fill="black"/>
<path d="M128.205 46.7391C126.914 46.7391 125.758 46.4569 124.738 45.8928C124.237 45.621 123.832 45.3286 123.519 45.0151C123.186 45.4748 122.821 45.8301 122.425 46.0807C122.238 46.2063 122.03 46.3212 121.801 46.4256H121.02V41.0969H122.269C122.54 41.9746 122.936 42.7896 123.457 43.5417C124.56 45.1508 125.935 45.9554 127.58 45.9554C128.455 45.9554 129.111 45.7463 129.549 45.3284C130.007 44.8895 130.236 44.2627 130.236 43.4477C130.236 42.7583 129.924 42.1834 129.299 41.7237C128.695 41.2431 127.737 40.6581 126.425 39.9684C125.3 39.4042 124.383 38.9027 123.675 38.4639C122.988 38.0042 122.394 37.4398 121.894 36.7712C121.415 36.0815 121.176 35.2769 121.176 34.3575C121.176 33.1036 121.707 32.0902 122.769 31.3169C123.852 30.5228 125.508 30.1257 127.737 30.1257C128.841 30.1257 129.861 30.4184 130.798 31.0034C131.257 31.2752 131.652 31.5574 131.985 31.8498C132.256 31.4739 132.621 31.1186 133.079 30.7841C133.433 30.575 133.641 30.4602 133.704 30.4393H134.485V35.7679H133.235C132.923 34.8694 132.538 34.0651 132.079 33.3545C131.038 31.7245 129.799 30.9094 128.361 30.9094C127.799 30.9094 127.32 31.1186 126.924 31.5365C126.529 31.9545 126.331 32.4768 126.331 33.1036C126.331 33.8977 126.664 34.5666 127.331 35.1098C127.997 35.6322 129.007 36.2384 130.361 36.9278C131.465 37.492 132.34 37.9937 132.985 38.4326C133.652 38.8505 134.214 39.3729 134.673 39.9997C135.152 40.6268 135.391 41.358 135.391 42.1939C135.391 45.2239 132.996 46.7391 128.205 46.7391Z" fill="black"/>
<path d="M144.452 46.7391C141.87 46.7391 139.839 46.0076 138.36 44.5449C136.902 43.0611 136.173 41.0238 136.173 38.4326C136.173 35.8413 136.902 33.8142 138.36 32.3515C139.839 30.8677 141.87 30.1257 144.452 30.1257C147.035 30.1257 149.055 30.8677 150.513 32.3515C151.992 33.8142 152.732 35.8413 152.732 38.4326C152.732 41.0238 151.992 43.0611 150.513 44.5449C149.055 46.0076 147.035 46.7391 144.452 46.7391ZM144.452 46.1121C145.285 46.1121 145.983 45.527 146.546 44.3567C147.129 43.1867 147.42 41.2118 147.42 38.4326C147.42 35.6531 147.129 33.6785 146.546 32.5081C145.983 31.3378 145.285 30.7528 144.452 30.7528C143.619 30.7528 142.911 31.3378 142.328 32.5081C141.766 33.6785 141.485 35.6531 141.485 38.4326C141.485 41.2118 141.766 43.1867 142.328 44.3567C142.911 45.527 143.619 46.1121 144.452 46.1121Z" fill="black"/>
<path d="M153.68 45.7988L155.554 45.3284V31.5365L153.68 31.0663V30.5962H156.492C157.72 30.5962 158.689 30.993 159.397 31.7871C159.668 32.1006 159.897 32.4873 160.085 32.947C160.397 32.362 160.73 31.8915 161.084 31.5365C162.021 30.5962 163.094 30.1257 164.302 30.1257C165.51 30.1257 166.573 30.3975 167.489 30.9408C168.405 31.4634 169.113 32.1842 169.613 33.1036C169.926 32.4977 170.259 32.0067 170.613 31.6305C171.571 30.6275 172.644 30.1257 173.831 30.1257C174.935 30.1257 175.924 30.3557 176.799 30.8155C177.695 31.2752 178.382 31.9022 178.861 32.6961C179.361 33.4902 179.611 34.3575 179.611 35.2978V45.3284L181.485 45.7988V46.269H177.424C175.549 46.269 174.612 45.3283 174.612 43.4477V35.2978C174.612 33.9395 174.404 32.9261 173.987 32.2573C173.571 31.5678 173.102 31.223 172.582 31.223C171.977 31.223 171.363 31.6409 170.738 32.4768C170.488 32.8739 170.269 33.2918 170.082 33.7307V45.3284L171.956 45.7988V46.269H163.209V45.7988L165.083 45.3284V35.2978C165.083 33.9395 164.875 32.9261 164.458 32.2573C164.042 31.5678 163.573 31.223 163.052 31.223C162.448 31.223 161.834 31.6409 161.209 32.4768C160.959 32.8739 160.741 33.2918 160.553 33.7307V45.3284L162.428 45.7988V46.269H153.68V45.7988Z" fill="black"/>
<path fill-rule="evenodd" clip-rule="evenodd" d="M34.2014 52.2539C33.9999 52.2939 33.7909 52.307 33.579 52.291C27.0348 51.7927 20.8405 48.166 17.3112 42.0328C13.7819 35.8998 13.7486 28.7039 16.5909 22.7684C17.0035 21.9067 17.8981 21.3886 18.8482 21.4609C21.2869 21.6466 23.6771 22.2667 25.8989 23.2891C27.5753 20.0094 30.0556 17.2116 33.0789 15.1574C33.8678 14.6214 34.8998 14.6214 35.6887 15.1574C38.671 17.1837 41.1247 19.9336 42.8 23.1557C44.9375 22.2127 47.2238 21.6383 49.5547 21.4609C50.505 21.3886 51.3994 21.9067 51.8119 22.7684C54.6542 28.7039 54.6209 35.8998 51.0918 42.0328C47.5624 48.166 41.3681 51.7927 34.8238 52.291C34.6119 52.307 34.4029 52.2939 34.2014 52.2539ZM38.9962 48.5361C42.9191 47.1976 46.3887 44.481 48.621 40.6017C51.5925 35.4378 51.6893 29.3996 49.3986 24.3472C47.5178 24.5303 45.6766 25.0129 43.9496 25.775C44.792 28.1002 45.2517 30.61 45.2517 33.2273C45.2517 39.1927 42.8644 44.5988 38.9962 48.5361ZM40.2742 24.4867C38.8748 21.791 36.8471 19.4745 34.3838 17.7317C31.8676 19.5119 29.8061 21.8905 28.4042 24.6604C30.6355 26.092 32.6178 27.9753 34.2014 30.2701C35.8501 27.8812 37.9306 25.9384 40.2742 24.4867ZM35.8177 33.0461C37.2513 30.5929 39.1818 28.6105 41.4083 27.1542C42.0509 29.0609 42.399 31.1034 42.399 33.2273C42.399 38.1308 40.5436 42.6001 37.4935 45.9666C38.3188 41.714 37.8196 37.1847 35.8177 33.0461ZM32.5851 33.0461C31.2163 30.7031 29.3936 28.7897 27.2931 27.3539C26.6928 29.2033 26.3685 31.1773 26.3685 33.2273C26.3685 37.8793 28.0384 42.1407 30.8142 45.4402C30.1279 41.3419 30.6656 37.0144 32.5851 33.0461ZM34.2014 47.3655C35.2725 43.9488 35.3164 40.2212 34.2014 36.6876C33.0864 40.2212 33.1306 43.9488 34.2014 47.3655ZM19.7818 40.6017C22.1156 44.6574 25.8017 47.4421 29.944 48.7099C25.9741 44.7586 23.5157 39.2811 23.5157 33.2273C23.5157 30.6631 23.9568 28.2023 24.7671 25.917C22.9498 25.0727 20.9995 24.5414 19.0042 24.3472C16.7136 29.3996 16.8103 35.4378 19.7818 40.6017Z" fill="black"/>
</svg>
