<svg width="196" height="77" viewBox="0 0 196 77" fill="none" xmlns="http://www.w3.org/2000/svg">
<path fill-rule="evenodd" clip-rule="evenodd" d="M27.4544 30.0658C30.012 26.6415 34.1077 24.4229 38.7239 24.4229C43.3672 24.4229 47.4837 26.6676 50.0382 30.1264C49.9296 30.2377 49.8305 30.353 49.741 30.4682C49.2729 31.0713 48.9209 31.8483 48.6389 32.6372C48.0708 34.224 47.6376 36.2966 47.2364 38.2375L47.2008 38.412C46.8005 40.3493 46.4285 42.151 45.9787 43.4885C45.7766 44.0894 45.585 44.5142 45.4151 44.7863C45.2378 44.512 45.0365 44.082 44.8236 43.4725C44.3425 42.0966 43.9379 40.2252 43.509 38.2269L43.495 38.1615V38.1614C43.0829 36.2421 42.6456 34.2055 42.1005 32.6467C41.8266 31.8636 41.4905 31.0945 41.051 30.4969C40.6197 29.9105 39.9016 29.2486 38.8515 29.2486C37.8079 29.2486 37.0866 29.9033 36.649 30.4832C36.201 31.0768 35.8517 31.8428 35.564 32.6263C34.9845 34.2039 34.5108 36.2677 34.0699 38.2112L34.0243 38.412C33.5877 40.3373 33.1796 42.1372 32.7163 43.4773C32.5395 43.989 32.3726 44.3783 32.2215 44.6565C32.0739 44.3796 31.9112 43.9929 31.7391 43.4855C31.2947 42.174 30.9053 40.4244 30.4872 38.5453L30.414 38.2164C29.9807 36.2717 29.5106 34.2042 28.9229 32.6216C28.6309 31.8352 28.2738 31.0655 27.8116 30.469C27.707 30.334 27.588 30.1969 27.4544 30.0658ZM25.9064 32.6952C26.0282 32.9347 26.1571 33.2314 26.2903 33.5902C26.799 34.9601 27.23 36.8293 27.6738 38.8213L27.7602 39.2094C28.1642 41.027 28.5846 42.9177 29.0797 44.3783C29.343 45.1552 29.661 45.9162 30.07 46.5075C30.4567 47.0668 31.1505 47.7893 32.2174 47.7893C33.2812 47.7893 33.9767 47.0703 34.3661 46.5136C34.7785 45.9235 35.1017 45.1635 35.3704 44.3861C35.8854 42.8965 36.3238 40.9615 36.7435 39.1097V39.1096L36.8077 38.8265C37.2598 36.8334 37.6951 34.9604 38.2 33.5856C38.434 32.9486 38.653 32.5048 38.8437 32.2295C39.0244 32.5025 39.2309 32.9392 39.4498 33.5652C39.931 34.9411 40.3352 36.8126 40.7643 38.8108L40.7783 38.8762C41.1904 40.7956 41.6276 42.8322 42.1728 44.3909C42.4466 45.1743 42.7827 45.9434 43.2222 46.5408C43.6537 47.1274 44.3716 47.7893 45.4216 47.7893C46.4772 47.7893 47.1925 47.1213 47.6189 46.5296C48.0517 45.9291 48.3772 45.1574 48.6402 44.3753C49.1456 42.8731 49.5476 40.9238 49.9305 39.0695V39.0695L49.9856 38.8002C50.3981 36.8044 50.794 34.9404 51.2829 33.5746C51.3889 33.2775 51.4932 33.0242 51.5928 32.8114C52.342 34.5206 52.7575 36.4079 52.7575 38.3918C52.7575 46.1065 46.4746 52.3608 38.7239 52.3608C30.9733 52.3608 24.6903 46.1065 24.6903 38.3918C24.6903 36.3628 25.1248 34.4349 25.9064 32.6952ZM38.7239 21.6292C29.4232 21.6292 21.8835 29.1341 21.8835 38.3918C21.8835 47.6495 29.4232 55.1544 38.7239 55.1544C48.0248 55.1544 55.564 47.6495 55.564 38.3918C55.564 29.1341 48.0248 21.6292 38.7239 21.6292ZM39.0447 31.9957C39.0447 31.996 39.0415 31.9986 39.0349 32.0024C39.0414 31.9972 39.0447 31.9953 39.0447 31.9957ZM38.6568 31.9976C38.6503 31.9936 38.6471 31.9909 38.6471 31.9905C38.6471 31.9902 38.6503 31.9922 38.6568 31.9976ZM45.2082 45.0514C45.2082 45.0514 45.2112 45.0484 45.2173 45.0445C45.2112 45.0497 45.2082 45.0519 45.2082 45.0514ZM45.6163 45.0402C45.6228 45.0441 45.6263 45.0467 45.6263 45.0471C45.6263 45.0475 45.6228 45.0454 45.6163 45.0402ZM31.9298 45.0765C31.9297 45.0761 31.9338 45.0722 31.9419 45.0666C31.9339 45.0739 31.9298 45.077 31.9298 45.0765ZM32.4982 45.0692C32.5062 45.0748 32.5102 45.0787 32.5102 45.0791C32.5102 45.0795 32.5061 45.077 32.4982 45.0692Z" fill="black"/>
<path d="M64.863 48.3157L60.7791 34.4111H64.3562L66.7782 44.419L69.5943 34.4111H73.5934L76.41 44.419L78.8602 34.4111H82.4369L78.3252 48.3157H74.5795L71.5939 37.9153L68.6087 48.3157H64.863Z" fill="black"/>
<path d="M87.6854 48.6522C86.4838 48.6522 85.4982 48.4649 84.7285 48.0912C83.9588 47.6988 83.386 47.1849 83.0106 46.5494C82.6351 45.914 82.4473 45.2132 82.4473 44.4471C82.4473 43.1575 82.9541 42.1109 83.968 41.3073C84.9819 40.5037 86.5029 40.1019 88.5307 40.1019H92.0791V39.7654C92.0791 38.8123 91.8067 38.1115 91.2625 37.6629C90.718 37.2144 90.0418 36.9902 89.2347 36.9902C88.5025 36.9902 87.8641 37.1677 87.3195 37.5228C86.775 37.8592 86.4369 38.3638 86.3056 39.0366H82.785C82.8793 38.0274 83.217 37.149 83.7989 36.4014C84.3999 35.6539 85.1696 35.0839 86.1083 34.6914C87.0475 34.2803 88.0987 34.0747 89.2626 34.0747C91.253 34.0747 92.8206 34.5699 93.9661 35.5605C95.1113 36.5509 95.6841 37.9527 95.6841 39.7654V48.3157H92.6141L92.2764 46.0732C91.8632 46.8207 91.2812 47.4371 90.5303 47.9233C89.798 48.4091 88.8497 48.6522 87.6854 48.6522ZM88.5025 45.8487C89.5351 45.8487 90.333 45.5121 90.8962 44.8394C91.4781 44.1668 91.8445 43.3349 91.9948 42.3445H88.9249C87.9671 42.3445 87.2821 42.5221 86.8688 42.8771C86.456 43.2136 86.2491 43.6343 86.2491 44.1386C86.2491 44.6807 86.456 45.1011 86.8688 45.4001C87.2821 45.699 87.8262 45.8487 88.5025 45.8487Z" fill="black"/>
<path d="M101.359 48.3157L96.2334 34.4111H100.007L103.556 44.9238L107.104 34.4111H110.878L105.724 48.3157H101.359Z" fill="black"/>
<path d="M118.125 48.6522C116.717 48.6522 115.468 48.3529 114.379 47.7551C113.291 47.1568 112.436 46.3158 111.816 45.2318C111.197 44.1482 110.887 42.8958 110.887 41.4755C110.887 40.0365 111.188 38.7563 111.788 37.6349C112.408 36.5136 113.253 35.6446 114.323 35.0278C115.412 34.3924 116.689 34.0747 118.153 34.0747C119.524 34.0747 120.735 34.3737 121.786 34.9718C122.838 35.5698 123.655 36.3921 124.237 37.4387C124.837 38.4666 125.138 39.6159 125.138 40.8868C125.138 41.0924 125.128 41.3073 125.11 41.5316C125.11 41.7558 125.1 41.9894 125.081 42.2324H114.464C114.539 43.3163 114.915 44.1668 115.59 44.7836C116.285 45.4001 117.121 45.7085 118.097 45.7085C118.829 45.7085 119.44 45.5497 119.928 45.2318C120.434 44.8957 120.81 44.4657 121.054 43.9423H124.716C124.453 44.8208 124.011 45.6246 123.392 46.3535C122.791 47.0633 122.04 47.624 121.138 48.0354C120.256 48.4463 119.251 48.6522 118.125 48.6522ZM118.153 36.9902C117.271 36.9902 116.492 37.2425 115.816 37.747C115.14 38.233 114.708 38.9805 114.52 39.9897H121.477C121.42 39.074 121.082 38.3451 120.463 37.8031C119.843 37.2612 119.073 36.9902 118.153 36.9902Z" fill="black"/>
<path d="M127.043 48.3157V28.1316H130.648V48.3157H127.043Z" fill="black"/>
<path d="M139.992 48.6522C138.584 48.6522 137.336 48.3529 136.247 47.7551C135.158 47.1568 134.303 46.3158 133.684 45.2318C133.064 44.1482 132.755 42.8958 132.755 41.4755C132.755 40.0365 133.055 38.7563 133.655 37.6349C134.275 36.5136 135.12 35.6446 136.19 35.0278C137.28 34.3924 138.556 34.0747 140.02 34.0747C141.391 34.0747 142.602 34.3737 143.654 34.9718C144.705 35.5698 145.522 36.3921 146.104 37.4387C146.704 38.4666 147.005 39.6159 147.005 40.8868C147.005 41.0924 146.996 41.3073 146.977 41.5316C146.977 41.7558 146.967 41.9894 146.949 42.2324H136.331C136.406 43.3163 136.782 44.1668 137.458 44.7836C138.152 45.4001 138.988 45.7085 139.964 45.7085C140.696 45.7085 141.307 45.5497 141.795 45.2318C142.302 44.8957 142.677 44.4657 142.921 43.9423H146.583C146.32 44.8208 145.878 45.6246 145.259 46.3535C144.658 47.0633 143.907 47.624 143.006 48.0354C142.123 48.4463 141.119 48.6522 139.992 48.6522ZM140.02 36.9902C139.138 36.9902 138.359 37.2425 137.683 37.747C137.007 38.233 136.575 38.9805 136.387 39.9897H143.344C143.287 39.074 142.95 38.3451 142.33 37.8031C141.71 37.2612 140.941 36.9902 140.02 36.9902Z" fill="black"/>
<path d="M154.684 48.6522C153.445 48.6522 152.356 48.4558 151.417 48.0635C150.478 47.6521 149.727 47.0915 149.164 46.3812C148.601 45.6713 148.263 44.849 148.15 43.9146H151.783C151.896 44.4562 152.196 44.9238 152.684 45.3161C153.191 45.6899 153.839 45.8768 154.627 45.8768C155.416 45.8768 155.989 45.718 156.345 45.4001C156.721 45.0825 156.909 44.7179 156.909 44.3069C156.909 43.7087 156.646 43.3068 156.12 43.1014C155.594 42.8771 154.862 42.6622 153.923 42.4567C153.323 42.3258 152.713 42.167 152.093 41.9801C151.473 41.7932 150.901 41.5596 150.375 41.2793C149.868 40.9802 149.455 40.6065 149.136 40.1579C148.817 39.6907 148.657 39.1207 148.657 38.4479C148.657 37.2144 149.145 36.1772 150.122 35.3362C151.116 34.4952 152.506 34.0747 154.29 34.0747C155.942 34.0747 157.256 34.4578 158.232 35.224C159.228 35.9903 159.819 37.0462 160.007 38.3918H156.599C156.392 37.3639 155.613 36.85 154.262 36.85C153.586 36.85 153.06 36.9808 152.684 37.2425C152.328 37.5041 152.149 37.8311 152.149 38.2236C152.149 38.6348 152.421 38.9618 152.966 39.2048C153.511 39.4477 154.233 39.672 155.135 39.8776C156.111 40.1019 157.003 40.3541 157.81 40.6345C158.636 40.8961 159.293 41.298 159.782 41.8399C160.27 42.3632 160.514 43.1201 160.514 44.1105C160.533 44.9705 160.307 45.7457 159.838 46.4374C159.368 47.1287 158.693 47.6707 157.81 48.0635C156.928 48.4558 155.886 48.6522 154.684 48.6522Z" fill="black"/>
<path d="M168.354 48.6522C167.115 48.6522 166.026 48.4558 165.087 48.0635C164.148 47.6521 163.397 47.0915 162.834 46.3812C162.271 45.6713 161.933 44.849 161.82 43.9146H165.453C165.566 44.4562 165.866 44.9238 166.354 45.3161C166.862 45.6899 167.509 45.8768 168.298 45.8768C169.086 45.8768 169.659 45.718 170.016 45.4001C170.391 45.0825 170.579 44.7179 170.579 44.3069C170.579 43.7087 170.316 43.3068 169.79 43.1014C169.265 42.8771 168.533 42.6622 167.594 42.4567C166.993 42.3258 166.383 42.167 165.763 41.9801C165.144 41.7932 164.571 41.5596 164.045 41.2793C163.538 40.9802 163.125 40.6065 162.806 40.1579C162.487 39.6907 162.327 39.1207 162.327 38.4479C162.327 37.2144 162.816 36.1772 163.792 35.3362C164.787 34.4952 166.176 34.0747 167.96 34.0747C169.612 34.0747 170.926 34.4578 171.903 35.224C172.898 35.9903 173.489 37.0462 173.677 38.3918H170.269C170.063 37.3639 169.284 36.85 167.932 36.85C167.256 36.85 166.73 36.9808 166.354 37.2425C165.998 37.5041 165.819 37.8311 165.819 38.2236C165.819 38.6348 166.091 38.9618 166.636 39.2048C167.181 39.4477 167.903 39.672 168.805 39.8776C169.781 40.1019 170.673 40.3541 171.48 40.6345C172.307 40.8961 172.964 41.298 173.452 41.8399C173.94 42.3632 174.184 43.1201 174.184 44.1105C174.203 44.9705 173.978 45.7457 173.508 46.4374C173.038 47.1287 172.363 47.6707 171.48 48.0635C170.598 48.4558 169.556 48.6522 168.354 48.6522Z" fill="black"/>
</svg>
