<svg width="196" height="88" viewBox="0 0 196 88" fill="none" xmlns="http://www.w3.org/2000/svg">
<path d="M107.2 54.2856V30.5291H111.526V54.2856H107.2Z" fill="black"/>
<path d="M70.582 31.186L79.729 54.2855H83.2952L92.5416 31.186H87.7535L81.5661 47.4042L75.4361 31.186H70.582Z" fill="black"/>
<path fill-rule="evenodd" clip-rule="evenodd" d="M93.1875 53.5296C94.4863 54.2526 95.9396 54.6142 97.5468 54.6142C99.1535 54.6142 100.596 54.2526 101.873 53.5296C103.172 52.7852 104.195 51.7882 104.944 50.5395C105.692 49.269 106.067 47.8562 106.067 46.301C106.067 44.7457 105.692 43.3546 104.944 42.1279C104.195 40.8793 103.172 39.8936 101.873 39.1707C100.596 38.4259 99.1425 38.0535 97.5138 38.0535C95.9286 38.0535 94.4863 38.4259 93.1875 39.1707C91.8886 39.8936 90.8651 40.8793 90.1165 42.1279C89.3679 43.3546 88.994 44.7457 88.994 46.301C88.994 47.8562 89.3679 49.269 90.1165 50.5395C90.8871 51.7882 91.9106 52.7852 93.1875 53.5296ZM99.6603 50.0795C99.0436 50.4301 98.3279 50.6056 97.5138 50.6056C96.7212 50.6056 96.0166 50.4301 95.4004 50.0795C94.7837 49.7071 94.2994 49.2033 93.9471 48.5683C93.5948 47.9109 93.4188 47.1662 93.4188 46.3338C93.4188 45.5014 93.5948 44.7676 93.9471 44.1323C94.2994 43.497 94.7837 43.0042 95.4004 42.6537C96.0166 42.2813 96.7212 42.095 97.5138 42.095C98.3279 42.095 99.0436 42.2813 99.6603 42.6537C100.276 43.0042 100.761 43.497 101.113 44.1323C101.465 44.7676 101.641 45.5014 101.641 46.3338C101.641 47.1662 101.465 47.9109 101.113 48.5683C100.783 49.2033 100.298 49.7071 99.6603 50.0795Z" fill="black"/>
<path d="M116.746 53.7271C117.847 54.3184 119.102 54.6143 120.511 54.6143C121.92 54.6143 123.164 54.3293 124.242 53.7599C125.343 53.1687 126.191 52.3472 126.785 51.2955C127.401 50.2442 127.709 49.0175 127.709 47.6152V38.415H123.383V47.5168C123.383 48.5028 123.131 49.2691 122.624 49.8171C122.118 50.3646 121.413 50.6386 120.511 50.6386C119.916 50.6386 119.399 50.5177 118.959 50.2771C118.518 50.0359 118.188 49.6853 117.968 49.2253C117.748 48.7435 117.638 48.1741 117.638 47.5168V38.415H113.279V47.6152C113.279 48.9956 113.587 50.2114 114.203 51.2627C114.82 52.3144 115.667 53.1354 116.746 53.7271Z" fill="black"/>
<path d="M129.503 54.2856V38.415H133.829V39.792C134.216 39.416 134.656 39.0995 135.15 38.8422C136.075 38.3383 137.121 38.0864 138.287 38.0864C139.388 38.0864 140.39 38.3383 141.292 38.8422C142.049 39.246 142.674 39.7961 143.167 40.4922C143.701 39.8147 144.353 39.2756 145.123 38.875C146.092 38.3493 147.17 38.0864 148.359 38.0864C149.548 38.0864 150.616 38.3383 151.562 38.8422C152.509 39.3241 153.257 40.0251 153.808 40.9451C154.358 41.8651 154.633 42.9604 154.633 44.231V54.2856H150.308V44.921C150.308 44.0009 150.01 43.289 149.416 42.7852C148.843 42.2594 148.128 41.9966 147.269 41.9966C146.719 41.9966 146.202 42.1171 145.717 42.358C145.255 42.5771 144.892 42.9057 144.627 43.3438C144.364 43.7819 144.231 44.3076 144.231 44.921V54.2856H139.905V44.921C139.905 44.0009 139.608 43.289 139.014 42.7852C138.442 42.2594 137.726 41.9966 136.867 41.9966C136.295 41.9966 135.777 42.1171 135.315 42.358C134.853 42.5771 134.489 42.9057 134.226 43.3438C133.961 43.7819 133.829 44.3076 133.829 44.921V54.2856H129.503Z" fill="black"/>
<path fill-rule="evenodd" clip-rule="evenodd" d="M159.659 53.5624C160.958 54.2636 162.444 54.6142 164.117 54.6142C165.416 54.6142 166.616 54.3839 167.716 53.924C168.839 53.464 169.786 52.7852 170.556 51.8871L168.014 49.357C167.529 49.9045 166.957 50.3207 166.296 50.6056C165.636 50.8682 164.899 50.9995 164.084 50.9995C163.181 50.9995 162.389 50.8135 161.706 50.4411C161.024 50.0467 160.495 49.4992 160.121 48.7981C159.98 48.5093 159.868 48.2011 159.784 47.8738L171.448 47.8453C171.536 47.4729 171.591 47.1443 171.613 46.8596C171.657 46.5529 171.679 46.2572 171.679 45.9724C171.679 44.4609 171.338 43.1137 170.655 41.9308C169.995 40.726 169.07 39.784 167.882 39.1049C166.715 38.4039 165.361 38.0535 163.82 38.0535C162.256 38.0535 160.837 38.4259 159.56 39.1707C158.283 39.8936 157.27 40.8793 156.522 42.1279C155.795 43.3546 155.432 44.7566 155.432 46.3338C155.432 47.9328 155.806 49.357 156.555 50.6056C157.325 51.8538 158.36 52.8399 159.659 53.5624ZM159.787 44.653C159.864 44.3625 159.965 44.0904 160.088 43.8366C160.44 43.1356 160.936 42.5989 161.574 42.2265C162.212 41.8322 162.961 41.6351 163.82 41.6351C164.634 41.6351 165.317 41.8103 165.867 42.1608C166.439 42.4894 166.869 42.9713 167.155 43.6065C167.303 43.9124 167.421 44.2538 167.508 44.6307L159.787 44.653Z" fill="black"/>
<path fill-rule="evenodd" clip-rule="evenodd" d="M43.9952 63.8285C55.0923 63.8285 64.0877 54.8773 64.0877 43.8353C64.0877 32.7935 55.0923 23.8423 43.9952 23.8423C32.8983 23.8423 23.9024 32.7935 23.9024 43.8353C23.9024 54.8773 32.8983 63.8285 43.9952 63.8285ZM52.3167 31.598C52.5552 31.7987 52.6924 32.0937 52.6924 32.4044L52.692 36.4212L52.6924 36.6855L52.692 36.7171V50.1633C52.692 52.4984 50.7893 54.3911 48.4426 54.3911C46.0958 54.3911 44.1934 52.4984 44.1934 50.1633C44.1934 47.8278 46.0958 45.9348 48.4426 45.9348C49.2166 45.9348 49.9422 46.1408 50.567 46.5005V37.9333L39.9437 39.6955V52.2772C39.9437 54.6123 38.0413 56.5055 35.6945 56.5055C33.3476 56.5055 31.4452 54.6123 31.4452 52.2772C31.4452 49.9421 33.3476 48.0489 35.6945 48.0489C36.4685 48.0489 37.1944 48.2549 37.8191 48.6145L37.8195 38.7996L37.8191 38.5353L37.8195 38.5037V34.5185C37.8195 34.002 38.1949 33.5609 38.7075 33.4759L51.4553 31.3618C51.7631 31.3107 52.0782 31.3972 52.3167 31.598Z" fill="black"/>
</svg>
