<svg width="196" height="76" viewBox="0 0 196 76" fill="none" xmlns="http://www.w3.org/2000/svg">
<path d="M37.8795 16.8423L16.6809 42.3148H35.7596L33.6398 59.2966L54.8384 33.824H35.7596L37.8795 16.8423Z" fill="black"/>
<path d="M84.8505 34.5981V42.4557H73.5317V53.2185H64.6383V21.3115H87.2283V29.1692H73.5317V34.5981H84.8505Z" fill="black"/>
<path d="M99.6318 21.3115V53.2185H91.4515V21.3115H99.6318Z" fill="black"/>
<path d="M113.129 28.2166C114.397 28.2166 115.633 28.5023 116.838 29.0737C118.075 29.6134 119.089 30.3119 119.882 31.1691V28.9309H128.062V53.2183H119.882V49.1702C119.28 50.5036 118.36 51.6306 117.124 52.5514C115.887 53.4722 114.397 53.9328 112.653 53.9328C110.846 53.9328 109.149 53.4722 107.564 52.5514C105.979 51.6306 104.679 50.218 103.665 48.313C102.682 46.3766 102.19 43.948 102.19 41.0269C102.19 38.2966 102.682 35.979 103.665 34.0741C104.679 32.1692 106.011 30.7246 107.659 29.7404C109.34 28.7245 111.163 28.2166 113.129 28.2166ZM114.841 36.2171C113.668 36.2171 112.685 36.6933 111.892 37.6458C111.131 38.5982 110.751 39.7252 110.751 41.0269C110.751 42.3286 111.147 43.4239 111.94 44.3129C112.732 45.202 113.779 45.6463 115.079 45.6463C115.776 45.6463 116.489 45.4717 117.219 45.1226C117.948 44.7414 118.566 44.186 119.073 43.4556C119.612 42.6935 119.882 41.7254 119.882 40.5507V38.2172C119.185 37.6457 118.392 37.1695 117.504 36.7886C116.648 36.4076 115.76 36.2171 114.841 36.2171Z" fill="black"/>
<path d="M140.75 28.2166C142.336 28.2166 143.794 28.4547 145.126 28.9309C146.489 29.3753 147.583 29.9944 148.407 30.7881V37.2172C147.583 36.7092 146.648 36.233 145.602 35.7885C144.555 35.3123 143.43 35.0741 142.225 35.0741C141.464 35.0741 140.782 35.2329 140.18 35.5504C139.609 35.8361 139.324 36.2964 139.324 36.9314C139.324 37.3759 139.498 37.7092 139.847 37.9315C140.196 38.1537 140.877 38.3918 141.892 38.6458L143.366 39.0268C147.583 40.1062 149.691 42.3762 149.691 45.8367C149.691 47.4243 149.216 48.837 148.265 50.0752C147.345 51.2815 146.125 52.2341 144.603 52.9327C143.112 53.5991 141.496 53.9328 139.752 53.9328C137.945 53.9328 136.264 53.6785 134.711 53.1707C133.157 52.6308 131.825 51.9802 130.716 51.2181V44.8366C131.857 45.5352 133.141 46.1223 134.568 46.5988C136.026 47.0748 137.326 47.3133 138.468 47.3133C139.387 47.3133 140.053 47.2018 140.465 46.9796C140.909 46.7575 141.131 46.3608 141.131 45.7891C141.131 45.3448 140.877 45.0111 140.37 44.789C139.863 44.5351 139.134 44.2495 138.182 43.9321L135.757 43.17C133.981 42.6301 132.682 41.7891 131.857 40.6459C131.033 39.4713 130.621 38.0426 130.621 36.36C130.621 34.6773 131.064 33.2328 131.952 32.0263C132.84 30.8199 134.045 29.8833 135.566 29.2166C137.12 28.5499 138.848 28.2166 140.75 28.2166Z" fill="black"/>
<path d="M166.565 28.2165C169.038 28.2165 171.052 29.0579 172.605 30.7405C174.19 32.4232 174.983 34.9154 174.983 38.2172V53.2183H166.803L166.756 39.503C166.756 38.2966 166.422 37.4553 165.757 36.979C165.091 36.4711 164.346 36.2171 163.522 36.2171C162.634 36.2171 161.888 36.4552 161.286 36.9314C160.684 37.3759 160.161 37.9156 159.717 38.5506V53.2183H151.537V21.3113H159.717V32.0739C160.478 31.0263 161.397 30.1214 162.475 29.3595C163.585 28.5975 164.948 28.2165 166.565 28.2165Z" fill="black"/>
<path d="M174.571 21.4971V22.5103H173.353V25.5931H172.197V22.5103H170.979V21.4971H174.571Z" fill="black"/>
<path d="M179.319 21.4358V25.6116H178.163V23.5851L177.316 24.537H176.969L176.122 23.5851V25.6116H174.966V21.4358H175.374L177.143 23.2167L178.911 21.4358H179.319Z" fill="black"/>
</svg>
